Coordinates
version=1
nRows=4
nColumns=60
inDegrees=yes

Units are S.I. units (second, meters, Newtons, ...)
If the header above contains a line with 'inDegrees', this indicates whether rotational values are in degrees (yes) or radians (no).

endheader
time	pelvis_tilt	pelvis_list	pelvis_rotation	pelvis_tx	pelvis_ty	pelvis_tz	hip_flexion_r	hip_adduction_r	hip_rotation_r	knee_angle_r_beta	knee_angle_r	ankle_angle_r	subtalar_angle_r	mtp_angle_r	hip_flexion_l	hip_adduction_l	hip_rotation_l	knee_angle_l_beta	knee_angle_l	ankle_angle_l	subtalar_angle_l	mtp_angle_l	L5_S1_Flex_Ext	L5_S1_Lat_Bending	L5_S1_axial_rotation	L4_L5_Flex_Ext	L4_L5_Lat_Bending	L4_L5_axial_rotation	L3_L4_Flex_Ext	L3_L4_Lat_Bending	L3_L4_axial_rotation	L2_L3_Flex_Ext	L2_L3_Lat_Bending	L2_L3_axial_rotation	L1_L2_Flex_Ext	L1_L2_Lat_Bending	L1_L2_axial_rotation	L1_T12_Flex_Ext	L1_T12_Lat_Bending	L1_T12_axial_rotation	Abs_r3	Abs_r2	Abs_r1	Abs_t1	Abs_t2	arm_flex_r	arm_add_r	arm_rot_r	elbow_flex_r	pro_sup_r	wrist_flex_r	wrist_dev_r	arm_flex_l	arm_add_l	arm_rot_l	elbow_flex_l	pro_sup_l	wrist_flex_l	wrist_dev_l
      9.36000000	     -0.13599566	     -6.58360719	     93.75502718	      0.39602181	      0.89105704	      0.41197139	     32.93330146	     -6.88008962	      2.30175098	      0.48530287	    -27.80580616	      4.16049604	      0.00000000	      0.00000000	     32.70749940	     -3.93791936	      1.60972791	      0.42476904	    -24.33747347	      2.75596207	      0.00000000	      0.00000000	    -10.92926551	      0.38700287	      0.05423753	    -20.29673898	      0.51471381	      0.05762738	    -17.95569031	      0.94095877	      0.05762738	    -12.49105755	      0.94095877	      0.04745784	    -10.14891595	      0.78917625	      0.04406800	     -6.24498231	      0.59946744	      0.04067815	    -78.06665062	      4.37785384	      0.30165289	      0.00000000	      0.00000000	     68.38293495	    -21.93631248	     24.45881421	     56.99380982	     60.41849687	    -19.40136547	     24.51730478	     73.39335860	    -18.26518368	     34.87295708	     53.65564021	     54.96059869	    -22.79522757	     21.98346344
      9.37000000	     -0.17430403	     -6.90456842	     93.74538369	      0.39601025	      0.88929500	      0.41344897	     33.72313744	     -6.94514135	      2.31297434	      0.49592102	    -28.41418156	      4.25054878	      0.00000000	      0.00000000	     33.46153861	     -3.89253152	      1.50076539	      0.43447369	    -24.89350855	      2.79830194	      0.00000000	      0.00000000	    -10.98141098	      0.38536767	      0.04581692	    -20.39357833	      0.51253900	      0.04868048	    -18.04136010	      0.93698295	      0.04868048	    -12.55065461	      0.93698295	      0.04008981	    -10.19733824	      0.78584175	      0.03722625	     -6.27477824	      0.59693452	      0.03436269	    -78.43912050	      4.35935615	      0.25481999	      0.00000000	      0.00000000	     69.33439106	    -21.77612909	     24.34394452	     56.85771304	     60.59002723	    -19.41019448	     24.57054889	     74.49343004	    -18.26190609	     35.08137274	     53.32363402	     54.71678516	    -22.60932745	     21.83541091
      9.38000000	     -0.22510838	     -7.42269264	     93.72987461	      0.39601390	      0.88715729	      0.41490502	     34.72975668	     -7.03908964	      2.28931526	      0.50668542	    -29.03093616	      4.45745026	      0.00000000	      0.00000000	     34.45577123	     -3.85246020	      1.22889353	      0.44508958	    -25.50175419	      2.91340467	      0.00000000	      0.00000000	    -10.99193160	      0.38144831	      0.03677438	    -20.41311617	      0.50732625	      0.03907278	    -18.05864442	      0.92745342	      0.03907278	    -12.56267862	      0.92745342	      0.03217759	    -10.20710768	      0.77784940	      0.02987919	     -6.28078972	      0.59086343	      0.02758079	    -78.51426821	      4.31501958	      0.20452809	      0.00000000	      0.00000000	     70.14141639	    -21.59589610	     24.17464789	     56.67630943	     60.86017046	    -19.38154773	     24.48900205	     75.53192402	    -18.28103812	     35.58744180	     52.87171841	     54.13133909	    -22.44868759	     21.33657444
      9.39000000	     -0.21964945	     -7.72443569	     93.73622863	      0.39597763	      0.88573621	      0.41592937	     35.16454451	     -7.06810510	      2.30389336	      0.50681806	    -29.03853599	      4.51011042	      0.00000000	      0.00000000	     34.89782052	     -3.84187420	      1.22533533	      0.44521695	    -25.50905249	      2.95257125	      0.00000000	      0.00000000	    -11.05149146	      0.38307740	      0.03792388	    -20.52372479	      0.50949294	      0.04029412	    -18.15649532	      0.93141440	      0.04029412	    -12.63074959	      0.93141440	      0.03318340	    -10.26241497	      0.78117144	      0.03081315	     -6.31482222	      0.59338690	      0.02844291	    -78.93969833	      4.33344819	      0.21092125	      0.00000000	      0.00000000	     70.97352452	    -21.56569127	     24.03561578	     56.77849802	     60.99838111	    -19.40665462	     24.35064848	     76.40082889	    -18.28592981	     35.48921463	     52.91503496	     54.22457300	    -22.41112180	     21.16492462
